<?xml version="1.0" encoding="UTF-8" standalone="no"?>
<!DOCTYPE svg PUBLIC "-//W3C//DTD SVG 1.1//EN"
 "http://www.w3.org/Graphics/SVG/1.1/DTD/svg11.dtd">
<!-- Generated by graphviz version 2.36.0 (20140111.2315)
 -->
<!-- Title: controllers_diagram Pages: 1 -->
<svg width="674pt" height="666pt"
 viewBox="0.00 0.00 674.00 666.00" xmlns="http://www.w3.org/2000/svg" xmlns:xlink="http://www.w3.org/1999/xlink">
<g id="graph0" class="graph" transform="scale(1 1) rotate(0) translate(4 662)">
<title>controllers_diagram</title>
<polygon fill="none" stroke="none" points="-4,4 -4,-662 670,-662 670,4 -4,4"/>
<!-- _diagram_info -->
<g id="node1" class="node"><title>_diagram_info</title>
<text text-anchor="start" x="350" y="-63.6" font-family="Times,serif" font-size="13.00">Controllers diagram</text>
<text text-anchor="start" x="350" y="-49.6" font-family="Times,serif" font-size="13.00">Date: Apr 04 2016 &#45; 00:13</text>
<text text-anchor="start" x="350" y="-35.6" font-family="Times,serif" font-size="13.00">Migration version: 20160326065944</text>
<text text-anchor="start" x="350" y="-21.6" font-family="Times,serif" font-size="13.00">Generated by RailRoady 1.4.2</text>
<text text-anchor="start" x="350" y="-7.6" font-family="Times,serif" font-size="13.00">http://railroady.prestonlee.com</text>
</g>
<!-- TpaController -->
<g id="node2" class="node"><title>TpaController</title>
<path fill="none" stroke="black" d="M202,-399.5C202,-399.5 287,-399.5 287,-399.5 293,-399.5 299,-405.5 299,-411.5 299,-411.5 299,-645.5 299,-645.5 299,-651.5 293,-657.5 287,-657.5 287,-657.5 202,-657.5 202,-657.5 196,-657.5 190,-651.5 190,-645.5 190,-645.5 190,-411.5 190,-411.5 190,-405.5 196,-399.5 202,-399.5"/>
<text text-anchor="middle" x="244.5" y="-642.3" font-family="Times,serif" font-size="14.00">TpaController</text>
<polyline fill="none" stroke="black" points="190,-634.5 299,-634.5 "/>
<text text-anchor="start" x="198" y="-619.3" font-family="Times,serif" font-size="14.00">challenge</text>
<text text-anchor="start" x="198" y="-604.3" font-family="Times,serif" font-size="14.00">create</text>
<text text-anchor="start" x="198" y="-589.3" font-family="Times,serif" font-size="14.00">destroy</text>
<text text-anchor="start" x="198" y="-574.3" font-family="Times,serif" font-size="14.00">destroy_multiple</text>
<text text-anchor="start" x="198" y="-559.3" font-family="Times,serif" font-size="14.00">edit</text>
<text text-anchor="start" x="198" y="-544.3" font-family="Times,serif" font-size="14.00">index</text>
<text text-anchor="start" x="198" y="-529.3" font-family="Times,serif" font-size="14.00">new</text>
<text text-anchor="start" x="198" y="-514.3" font-family="Times,serif" font-size="14.00">show</text>
<text text-anchor="start" x="198" y="-499.3" font-family="Times,serif" font-size="14.00">update</text>
<text text-anchor="start" x="198" y="-484.3" font-family="Times,serif" font-size="14.00">update_hash</text>
<text text-anchor="start" x="198" y="-469.3" font-family="Times,serif" font-size="14.00">verify</text>
<polyline fill="none" stroke="black" points="190,-461.5 299,-461.5 "/>
<polyline fill="none" stroke="black" points="190,-437.5 299,-437.5 "/>
<text text-anchor="start" x="198" y="-422.3" font-family="Times,serif" font-size="14.00">_layout</text>
<text text-anchor="start" x="198" y="-407.3" font-family="Times,serif" font-size="14.00">getuserid</text>
</g>
<!-- PasswordResetsController -->
<g id="node3" class="node"><title>PasswordResetsController</title>
<path fill="none" stroke="black" d="M506,-456.5C506,-456.5 641,-456.5 641,-456.5 647,-456.5 653,-462.5 653,-468.5 653,-468.5 653,-627.5 653,-627.5 653,-633.5 647,-639.5 641,-639.5 641,-639.5 506,-639.5 506,-639.5 500,-639.5 494,-633.5 494,-627.5 494,-627.5 494,-468.5 494,-468.5 494,-462.5 500,-456.5 506,-456.5"/>
<text text-anchor="middle" x="573.5" y="-624.3" font-family="Times,serif" font-size="14.00">PasswordResetsController</text>
<polyline fill="none" stroke="black" points="494,-616.5 653,-616.5 "/>
<text text-anchor="start" x="502" y="-601.3" font-family="Times,serif" font-size="14.00">create</text>
<text text-anchor="start" x="502" y="-586.3" font-family="Times,serif" font-size="14.00">edit</text>
<text text-anchor="start" x="502" y="-571.3" font-family="Times,serif" font-size="14.00">new</text>
<text text-anchor="start" x="502" y="-556.3" font-family="Times,serif" font-size="14.00">update</text>
<polyline fill="none" stroke="black" points="494,-548.5 653,-548.5 "/>
<polyline fill="none" stroke="black" points="494,-524.5 653,-524.5 "/>
<text text-anchor="start" x="502" y="-509.3" font-family="Times,serif" font-size="14.00">_layout</text>
<text text-anchor="start" x="502" y="-494.3" font-family="Times,serif" font-size="14.00">get_user</text>
<text text-anchor="start" x="502" y="-479.3" font-family="Times,serif" font-size="14.00">user_params</text>
<text text-anchor="start" x="502" y="-464.3" font-family="Times,serif" font-size="14.00">valid_user</text>
</g>
<!-- StaticPagesController -->
<g id="node4" class="node"><title>StaticPagesController</title>
<path fill="none" stroke="black" d="M544,-114.5C544,-114.5 654,-114.5 654,-114.5 660,-114.5 666,-120.5 666,-126.5 666,-126.5 666,-225.5 666,-225.5 666,-231.5 660,-237.5 654,-237.5 654,-237.5 544,-237.5 544,-237.5 538,-237.5 532,-231.5 532,-225.5 532,-225.5 532,-126.5 532,-126.5 532,-120.5 538,-114.5 544,-114.5"/>
<text text-anchor="middle" x="599" y="-222.3" font-family="Times,serif" font-size="14.00">StaticPagesController</text>
<polyline fill="none" stroke="black" points="532,-214.5 666,-214.5 "/>
<text text-anchor="start" x="540" y="-199.3" font-family="Times,serif" font-size="14.00">about</text>
<text text-anchor="start" x="540" y="-184.3" font-family="Times,serif" font-size="14.00">help</text>
<text text-anchor="start" x="540" y="-169.3" font-family="Times,serif" font-size="14.00">home</text>
<polyline fill="none" stroke="black" points="532,-161.5 666,-161.5 "/>
<polyline fill="none" stroke="black" points="532,-137.5 666,-137.5 "/>
<text text-anchor="start" x="540" y="-122.3" font-family="Times,serif" font-size="14.00">_layout</text>
</g>
<!-- ApplicationController -->
<g id="node5" class="node"><title>ApplicationController</title>
<path fill="none" stroke="black" d="M12,-209.5C12,-209.5 124,-209.5 124,-209.5 130,-209.5 136,-215.5 136,-221.5 136,-221.5 136,-335.5 136,-335.5 136,-341.5 130,-347.5 124,-347.5 124,-347.5 12,-347.5 12,-347.5 6,-347.5 -2.84217e-14,-341.5 -2.84217e-14,-335.5 -2.84217e-14,-335.5 -2.84217e-14,-221.5 -2.84217e-14,-221.5 -2.84217e-14,-215.5 6,-209.5 12,-209.5"/>
<text text-anchor="middle" x="68" y="-332.3" font-family="Times,serif" font-size="14.00">ApplicationController</text>
<polyline fill="none" stroke="black" points="-2.84217e-14,-324.5 136,-324.5 "/>
<text text-anchor="start" x="8" y="-309.3" font-family="Times,serif" font-size="14.00">correct_user</text>
<text text-anchor="start" x="8" y="-294.3" font-family="Times,serif" font-size="14.00">current_user</text>
<text text-anchor="start" x="8" y="-279.3" font-family="Times,serif" font-size="14.00">require_user</text>
<text text-anchor="start" x="8" y="-264.3" font-family="Times,serif" font-size="14.00">same_user</text>
<polyline fill="none" stroke="black" points="-2.84217e-14,-256.5 136,-256.5 "/>
<polyline fill="none" stroke="black" points="-2.84217e-14,-232.5 136,-232.5 "/>
<text text-anchor="start" x="8" y="-217.3" font-family="Times,serif" font-size="14.00">_layout</text>
</g>
<!-- ControlPanelsController -->
<g id="node6" class="node"><title>ControlPanelsController</title>
<path fill="none" stroke="black" d="M354,-114.5C354,-114.5 479,-114.5 479,-114.5 485,-114.5 491,-120.5 491,-126.5 491,-126.5 491,-405.5 491,-405.5 491,-411.5 485,-417.5 479,-417.5 479,-417.5 354,-417.5 354,-417.5 348,-417.5 342,-411.5 342,-405.5 342,-405.5 342,-126.5 342,-126.5 342,-120.5 348,-114.5 354,-114.5"/>
<text text-anchor="middle" x="416.5" y="-402.3" font-family="Times,serif" font-size="14.00">ControlPanelsController</text>
<polyline fill="none" stroke="black" points="342,-394.5 491,-394.5 "/>
<text text-anchor="start" x="350" y="-379.3" font-family="Times,serif" font-size="14.00">blit_tpa_csp</text>
<text text-anchor="start" x="350" y="-364.3" font-family="Times,serif" font-size="14.00">blit_tpa_csp_inbox</text>
<text text-anchor="start" x="350" y="-349.3" font-family="Times,serif" font-size="14.00">create</text>
<text text-anchor="start" x="350" y="-334.3" font-family="Times,serif" font-size="14.00">delete_message</text>
<text text-anchor="start" x="350" y="-319.3" font-family="Times,serif" font-size="14.00">delete_user</text>
<text text-anchor="start" x="350" y="-304.3" font-family="Times,serif" font-size="14.00">destroy</text>
<text text-anchor="start" x="350" y="-289.3" font-family="Times,serif" font-size="14.00">file</text>
<text text-anchor="start" x="350" y="-274.3" font-family="Times,serif" font-size="14.00">file_search</text>
<text text-anchor="start" x="350" y="-259.3" font-family="Times,serif" font-size="14.00">index</text>
<text text-anchor="start" x="350" y="-244.3" font-family="Times,serif" font-size="14.00">list_online_users</text>
<text text-anchor="start" x="350" y="-229.3" font-family="Times,serif" font-size="14.00">new</text>
<text text-anchor="start" x="350" y="-214.3" font-family="Times,serif" font-size="14.00">respond_tpa</text>
<text text-anchor="start" x="350" y="-199.3" font-family="Times,serif" font-size="14.00">send_hash</text>
<text text-anchor="start" x="350" y="-184.3" font-family="Times,serif" font-size="14.00">user</text>
<text text-anchor="start" x="350" y="-169.3" font-family="Times,serif" font-size="14.00">user_search</text>
<polyline fill="none" stroke="black" points="342,-161.5 491,-161.5 "/>
<polyline fill="none" stroke="black" points="342,-137.5 491,-137.5 "/>
<text text-anchor="start" x="350" y="-122.3" font-family="Times,serif" font-size="14.00">_layout</text>
</g>
<!-- FuzzyController -->
<g id="node7" class="node"><title>FuzzyController</title>
<path fill="none" stroke="black" d="M373,-456.5C373,-456.5 454,-456.5 454,-456.5 460,-456.5 466,-462.5 466,-468.5 466,-468.5 466,-582.5 466,-582.5 466,-588.5 460,-594.5 454,-594.5 454,-594.5 373,-594.5 373,-594.5 367,-594.5 361,-588.5 361,-582.5 361,-582.5 361,-468.5 361,-468.5 361,-462.5 367,-456.5 373,-456.5"/>
<text text-anchor="middle" x="413.5" y="-579.3" font-family="Times,serif" font-size="14.00">FuzzyController</text>
<polyline fill="none" stroke="black" points="361,-571.5 466,-571.5 "/>
<text text-anchor="start" x="369" y="-556.3" font-family="Times,serif" font-size="14.00">audit</text>
<text text-anchor="start" x="369" y="-541.3" font-family="Times,serif" font-size="14.00">authorize</text>
<text text-anchor="start" x="369" y="-526.3" font-family="Times,serif" font-size="14.00">fuzzy_search</text>
<polyline fill="none" stroke="black" points="361,-518.5 466,-518.5 "/>
<polyline fill="none" stroke="black" points="361,-494.5 466,-494.5 "/>
<text text-anchor="start" x="369" y="-479.3" font-family="Times,serif" font-size="14.00">_layout</text>
<text text-anchor="start" x="369" y="-464.3" font-family="Times,serif" font-size="14.00">gram_fuzzy_set</text>
</g>
<!-- SessionsController -->
<g id="node8" class="node"><title>SessionsController</title>
<path fill="none" stroke="black" d="M31,-38.5C31,-38.5 126,-38.5 126,-38.5 132,-38.5 138,-44.5 138,-50.5 138,-50.5 138,-164.5 138,-164.5 138,-170.5 132,-176.5 126,-176.5 126,-176.5 31,-176.5 31,-176.5 25,-176.5 19,-170.5 19,-164.5 19,-164.5 19,-50.5 19,-50.5 19,-44.5 25,-38.5 31,-38.5"/>
<text text-anchor="middle" x="78.5" y="-161.3" font-family="Times,serif" font-size="14.00">SessionsController</text>
<polyline fill="none" stroke="black" points="19,-153.5 138,-153.5 "/>
<text text-anchor="start" x="27" y="-138.3" font-family="Times,serif" font-size="14.00">create</text>
<text text-anchor="start" x="27" y="-123.3" font-family="Times,serif" font-size="14.00">destroy</text>
<text text-anchor="start" x="27" y="-108.3" font-family="Times,serif" font-size="14.00">index</text>
<text text-anchor="start" x="27" y="-93.3" font-family="Times,serif" font-size="14.00">new</text>
<polyline fill="none" stroke="black" points="19,-85.5 138,-85.5 "/>
<polyline fill="none" stroke="black" points="19,-61.5 138,-61.5 "/>
<text text-anchor="start" x="27" y="-46.3" font-family="Times,serif" font-size="14.00">_layout</text>
</g>
<!-- UsersController -->
<g id="node9" class="node"><title>UsersController</title>
<path fill="none" stroke="black" d="M69,-399.5C69,-399.5 148,-399.5 148,-399.5 154,-399.5 160,-405.5 160,-411.5 160,-411.5 160,-600.5 160,-600.5 160,-606.5 154,-612.5 148,-612.5 148,-612.5 69,-612.5 69,-612.5 63,-612.5 57,-606.5 57,-600.5 57,-600.5 57,-411.5 57,-411.5 57,-405.5 63,-399.5 69,-399.5"/>
<text text-anchor="middle" x="108.5" y="-597.3" font-family="Times,serif" font-size="14.00">UsersController</text>
<polyline fill="none" stroke="black" points="57,-589.5 160,-589.5 "/>
<text text-anchor="start" x="65" y="-574.3" font-family="Times,serif" font-size="14.00">create</text>
<text text-anchor="start" x="65" y="-559.3" font-family="Times,serif" font-size="14.00">destroy</text>
<text text-anchor="start" x="65" y="-544.3" font-family="Times,serif" font-size="14.00">edit</text>
<text text-anchor="start" x="65" y="-529.3" font-family="Times,serif" font-size="14.00">index</text>
<text text-anchor="start" x="65" y="-514.3" font-family="Times,serif" font-size="14.00">messages</text>
<text text-anchor="start" x="65" y="-499.3" font-family="Times,serif" font-size="14.00">new</text>
<text text-anchor="start" x="65" y="-484.3" font-family="Times,serif" font-size="14.00">show</text>
<text text-anchor="start" x="65" y="-469.3" font-family="Times,serif" font-size="14.00">update</text>
<polyline fill="none" stroke="black" points="57,-461.5 160,-461.5 "/>
<polyline fill="none" stroke="black" points="57,-437.5 160,-437.5 "/>
<text text-anchor="start" x="65" y="-422.3" font-family="Times,serif" font-size="14.00">_layout</text>
<text text-anchor="start" x="65" y="-407.3" font-family="Times,serif" font-size="14.00">user_params</text>
</g>
<!-- FileUploadsController -->
<g id="node10" class="node"><title>FileUploadsController</title>
<path fill="none" stroke="black" d="M183,-38.5C183,-38.5 297,-38.5 297,-38.5 303,-38.5 309,-44.5 309,-50.5 309,-50.5 309,-344.5 309,-344.5 309,-350.5 303,-356.5 297,-356.5 297,-356.5 183,-356.5 183,-356.5 177,-356.5 171,-350.5 171,-344.5 171,-344.5 171,-50.5 171,-50.5 171,-44.5 177,-38.5 183,-38.5"/>
<text text-anchor="middle" x="240" y="-341.3" font-family="Times,serif" font-size="14.00">FileUploadsController</text>
<polyline fill="none" stroke="black" points="171,-333.5 309,-333.5 "/>
<text text-anchor="start" x="179" y="-318.3" font-family="Times,serif" font-size="14.00">audit</text>
<text text-anchor="start" x="179" y="-303.3" font-family="Times,serif" font-size="14.00">create</text>
<text text-anchor="start" x="179" y="-288.3" font-family="Times,serif" font-size="14.00">decrypt</text>
<text text-anchor="start" x="179" y="-273.3" font-family="Times,serif" font-size="14.00">destroy</text>
<text text-anchor="start" x="179" y="-258.3" font-family="Times,serif" font-size="14.00">edit</text>
<text text-anchor="start" x="179" y="-243.3" font-family="Times,serif" font-size="14.00">index</text>
<text text-anchor="start" x="179" y="-228.3" font-family="Times,serif" font-size="14.00">new</text>
<text text-anchor="start" x="179" y="-213.3" font-family="Times,serif" font-size="14.00">send_hash</text>
<text text-anchor="start" x="179" y="-198.3" font-family="Times,serif" font-size="14.00">show</text>
<text text-anchor="start" x="179" y="-183.3" font-family="Times,serif" font-size="14.00">update</text>
<polyline fill="none" stroke="black" points="171,-175.5 309,-175.5 "/>
<polyline fill="none" stroke="black" points="171,-151.5 309,-151.5 "/>
<text text-anchor="start" x="179" y="-136.3" font-family="Times,serif" font-size="14.00">_layout</text>
<text text-anchor="start" x="179" y="-121.3" font-family="Times,serif" font-size="14.00">encryption_error</text>
<text text-anchor="start" x="179" y="-106.3" font-family="Times,serif" font-size="14.00">file_upload_params</text>
<text text-anchor="start" x="179" y="-91.3" font-family="Times,serif" font-size="14.00">gram_fuzzy_set</text>
<text text-anchor="start" x="179" y="-76.3" font-family="Times,serif" font-size="14.00">send_hash_params</text>
<text text-anchor="start" x="179" y="-61.3" font-family="Times,serif" font-size="14.00">set_file_upload</text>
<text text-anchor="start" x="179" y="-46.3" font-family="Times,serif" font-size="14.00">shared_user_valid</text>
</g>
</g>
</svg>
