<?xml version="1.0" encoding="UTF-8" standalone="no"?>
<!DOCTYPE svg PUBLIC "-//W3C//DTD SVG 1.1//EN"
 "http://www.w3.org/Graphics/SVG/1.1/DTD/svg11.dtd">
<!-- Generated by graphviz version 2.36.0 (20140111.2315)
 -->
<!-- Title: models_diagram Pages: 1 -->
<svg width="542pt" height="230pt"
 viewBox="0.00 0.00 542.00 230.00" xmlns="http://www.w3.org/2000/svg" xmlns:xlink="http://www.w3.org/1999/xlink">
<g id="graph0" class="graph" transform="scale(1 1) rotate(0) translate(4 226)">
<title>models_diagram</title>
<polygon fill="none" stroke="none" points="-4,4 -4,-226 538,-226 538,4 -4,4"/>
<!-- _diagram_info -->
<g id="node1" class="node"><title>_diagram_info</title>
<text text-anchor="start" x="29" y="-207.6" font-family="Times,serif" font-size="13.00">Models diagram</text>
<text text-anchor="start" x="29" y="-193.6" font-family="Times,serif" font-size="13.00">Date: Apr 04 2016 &#45; 00:13</text>
<text text-anchor="start" x="29" y="-179.6" font-family="Times,serif" font-size="13.00">Migration version: 20160326065944</text>
<text text-anchor="start" x="29" y="-165.6" font-family="Times,serif" font-size="13.00">Generated by RailRoady 1.4.2</text>
<text text-anchor="start" x="29" y="-151.6" font-family="Times,serif" font-size="13.00">http://railroady.prestonlee.com</text>
</g>
<!-- TpaCsp -->
<g id="node2" class="node"><title>TpaCsp</title>
<ellipse fill="none" stroke="black" cx="197" cy="-18" rx="38.0212" ry="18"/>
<text text-anchor="middle" x="197" y="-14.3" font-family="Times,serif" font-size="14.00">TpaCsp</text>
</g>
<!-- RequestMessage -->
<g id="node3" class="node"><title>RequestMessage</title>
<ellipse fill="none" stroke="black" cx="70" cy="-18" rx="70.2909" ry="18"/>
<text text-anchor="middle" x="70" y="-14.3" font-family="Times,serif" font-size="14.00">RequestMessage</text>
</g>
<!-- Tpa -->
<g id="node4" class="node"><title>Tpa</title>
<ellipse fill="none" stroke="black" cx="280" cy="-18" rx="27" ry="18"/>
<text text-anchor="middle" x="280" y="-14.3" font-family="Times,serif" font-size="14.00">Tpa</text>
</g>
<!-- SharedUser -->
<g id="node5" class="node"><title>SharedUser</title>
<ellipse fill="none" stroke="black" cx="483" cy="-18" rx="51.4931" ry="18"/>
<text text-anchor="middle" x="483" y="-14.3" font-family="Times,serif" font-size="14.00">SharedUser</text>
</g>
<!-- FileUpload -->
<g id="node6" class="node"><title>FileUpload</title>
<ellipse fill="none" stroke="black" cx="280" cy="-90" rx="50.0684" ry="18"/>
<text text-anchor="middle" x="280" y="-86.3" font-family="Times,serif" font-size="14.00">FileUpload</text>
</g>
<!-- FileUpload&#45;&gt;TpaCsp -->
<g id="edge2" class="edge"><title>FileUpload&#45;&gt;TpaCsp</title>
<path fill="none" stroke="#14935c" d="M254.7,-67.6625C244.555,-59.1069 232.879,-49.2594 222.695,-40.6707"/>
<ellipse fill="none" stroke="#14935c" cx="258.108" cy="-70.5371" rx="4.00002" ry="4.00002"/>
<polygon fill="#14935c" stroke="#14935c" points="222.55,-40.5485 217.807,-30.6615 218.728,-37.325 214.906,-34.1014 214.906,-34.1014 214.906,-34.1014 218.728,-37.325 212.005,-37.5414 222.55,-40.5485 222.55,-40.5485"/>
</g>
<!-- FileUpload&#45;&gt;RequestMessage -->
<g id="edge1" class="edge"><title>FileUpload&#45;&gt;RequestMessage</title>
<path fill="none" stroke="#27d4f2" d="M236.771,-74.5904C203.123,-63.3745 156.343,-47.7809 120.889,-35.9629"/>
<ellipse fill="none" stroke="#27d4f2" cx="240.582" cy="-75.8605" rx="4.00001" ry="4.00001"/>
<polygon fill="#27d4f2" stroke="#27d4f2" points="120.696,-35.8988 112.632,-28.4674 115.953,-34.3176 111.209,-32.7365 111.209,-32.7365 111.209,-32.7365 115.953,-34.3176 109.786,-37.0055 120.696,-35.8988 120.696,-35.8988"/>
</g>
<!-- FileUpload&#45;&gt;Tpa -->
<g id="edge3" class="edge"><title>FileUpload&#45;&gt;Tpa</title>
<path fill="none" stroke="#9c767a" d="M280,-63.6398C280,-58.0629 280,-52.1319 280,-46.4761"/>
<ellipse fill="none" stroke="#9c767a" cx="280" cy="-67.6966" rx="4" ry="4"/>
<polygon fill="#9c767a" stroke="#9c767a" points="280,-46.1043 284.5,-36.1043 280,-41.1043 280,-36.1043 280,-36.1043 280,-36.1043 280,-41.1043 275.5,-36.1044 280,-46.1043 280,-46.1043"/>
</g>
<!-- FileUpload&#45;&gt;SharedUser -->
<g id="edge5" class="edge"><title>FileUpload&#45;&gt;SharedUser</title>
<path fill="none" stroke="#830ac1" d="M322.55,-74.3275C356.285,-62.6949 403.316,-46.4773 437.738,-34.6077"/>
<ellipse fill="none" stroke="#830ac1" cx="318.678" cy="-75.6626" rx="4.00001" ry="4.00001"/>
<polygon fill="#830ac1" stroke="#830ac1" points="438.084,-34.4884 449.005,-35.4826 442.811,-32.8584 447.538,-31.2284 447.538,-31.2284 447.538,-31.2284 442.811,-32.8584 446.071,-26.9742 438.084,-34.4884 438.084,-34.4884"/>
</g>
<!-- Keyword -->
<g id="node7" class="node"><title>Keyword</title>
<ellipse fill="none" stroke="black" cx="369" cy="-18" rx="43.319" ry="18"/>
<text text-anchor="middle" x="369" y="-14.3" font-family="Times,serif" font-size="14.00">Keyword</text>
</g>
<!-- FileUpload&#45;&gt;Keyword -->
<g id="edge4" class="edge"><title>FileUpload&#45;&gt;Keyword</title>
<path fill="none" stroke="#55ddfd" d="M306.703,-67.9973C317.669,-59.3725 330.361,-49.39 341.417,-40.6948"/>
<ellipse fill="none" stroke="#55ddfd" cx="303.34" cy="-70.6431" rx="4.00002" ry="4.00002"/>
<polygon fill="#55ddfd" stroke="#55ddfd" points="341.636,-40.5223 352.278,-37.8772 345.566,-37.4312 349.496,-34.3402 349.496,-34.3402 349.496,-34.3402 345.566,-37.4312 346.714,-30.8031 341.636,-40.5223 341.636,-40.5223"/>
</g>
<!-- User -->
<g id="node8" class="node"><title>User</title>
<ellipse fill="none" stroke="black" cx="280" cy="-183" rx="26.949" ry="18"/>
<text text-anchor="middle" x="280" y="-179.3" font-family="Times,serif" font-size="14.00">User</text>
</g>
<!-- User&#45;&gt;RequestMessage -->
<g id="edge7" class="edge"><title>User&#45;&gt;RequestMessage</title>
<path fill="none" stroke="#50e19c" d="M260.777,-160.96C255.23,-155.253 249.04,-149.215 243,-144 197.106,-104.375 139.2,-64.3356 103.389,-40.6006"/>
<ellipse fill="none" stroke="#50e19c" cx="263.746" cy="-164.073" rx="4.00002" ry="4.00002"/>
<polygon fill="#50e19c" stroke="#50e19c" points="103.131,-40.4306 97.2576,-31.1703 98.9562,-37.6792 94.7813,-34.9277 94.7813,-34.9277 94.7813,-34.9277 98.9562,-37.6792 92.305,-38.6851 103.131,-40.4306 103.131,-40.4306"/>
</g>
<!-- User&#45;&gt;SharedUser -->
<g id="edge8" class="edge"><title>User&#45;&gt;SharedUser</title>
<path fill="none" stroke="#7f7397" d="M303.156,-163.407C340.784,-133.193 415.047,-73.5636 455.372,-41.1837"/>
<ellipse fill="none" stroke="#7f7397" cx="299.731" cy="-166.157" rx="4.00002" ry="4.00002"/>
<polygon fill="#7f7397" stroke="#7f7397" points="455.403,-41.159 466.018,-38.4068 459.302,-38.0285 463.201,-34.898 463.201,-34.898 463.201,-34.898 459.302,-38.0285 460.383,-31.3891 455.403,-41.159 455.403,-41.159"/>
</g>
<!-- User&#45;&gt;FileUpload -->
<g id="edge6" class="edge"><title>User&#45;&gt;FileUpload</title>
<path fill="none" stroke="#dd67b9" d="M280,-156.729C280,-144.725 280,-130.362 280,-118.129"/>
<ellipse fill="none" stroke="#dd67b9" cx="280" cy="-160.884" rx="4" ry="4"/>
<polygon fill="#dd67b9" stroke="#dd67b9" points="280,-118.04 284.5,-108.04 280,-113.04 280,-108.04 280,-108.04 280,-108.04 280,-113.04 275.5,-108.04 280,-118.04 280,-118.04"/>
</g>
</g>
</svg>
